HIERARCHY
ROOT hip
{
  OFFSET 0.00112043 5.09927 -9.65472
  CHANNELS 6 Xposition Yposition Zposition Zrotation Xrotation Yrotation
  JOINT abdomen
  {
    OFFSET 0 -1.186 -1.5018
    CHANNELS 3 Zrotation Xrotation Yrotation
    JOINT abdomen2
    {
      OFFSET 0 9.964 0.2134
      CHANNELS 3 Zrotation Xrotation Yrotation
      JOINT chest
      {
        OFFSET 0 13.134 -3.2573
        CHANNELS 3 Zrotation Xrotation Yrotation
        JOINT neck
        {
          OFFSET 0 20.686 -1.6905
          CHANNELS 3 Zrotation Xrotation Yrotation
          JOINT head
          {
            OFFSET 0 7.238 -0.1237
            CHANNELS 3 Zrotation Xrotation Yrotation
            End Site
            {
              OFFSET 0 0 0
            }
          }
        }
        JOINT lCollar
        {
          OFFSET 1.7069 20.075 5.0056
          CHANNELS 3 Zrotation Xrotation Yrotation
          JOINT lShldr
          {
            OFFSET 13.6458 -0.047 -4.849
            CHANNELS 3 Zrotation Xrotation Yrotation
            JOINT lForeArm
            {
              OFFSET 28.3255 -0.9759 2.2888
              CHANNELS 3 Zrotation Xrotation Yrotation
              JOINT lHand
              {
                OFFSET 22.1583 -0.53 10.8316
                CHANNELS 3 Zrotation Xrotation Yrotation
                JOINT lThumb1
                {
                  OFFSET 0.786 0.112 2.5817
                  CHANNELS 3 Zrotation Xrotation Yrotation
                  JOINT lThumb2
                  {
                    OFFSET 0.3601 -0.878 4.2331
                    CHANNELS 3 Zrotation Xrotation Yrotation
                    JOINT lThumb2_End
                    {
                      OFFSET 1.8127 -1.216 2.2227
                      CHANNELS 3 Zrotation Xrotation Yrotation
                      End Site
                      {
                        OFFSET 0.0181 -0.0122 0.0222
                      }
                    }
                  }
                }
                JOINT lCarpal1
                {
                  OFFSET 0.9571 1.114 1.7695
                  CHANNELS 3 Zrotation Xrotation Yrotation
                  JOINT lIndex1
                  {
                    OFFSET 4.1246 0.487 4.1451
                    CHANNELS 3 Zrotation Xrotation Yrotation
                    JOINT lIndex2
                    {
                      OFFSET 3.4052 -1.454 2.7682
                      CHANNELS 3 Zrotation Xrotation Yrotation
                      JOINT lIndex2_End
                      {
                        OFFSET 1.4531 -1.795 1.2713
                        CHANNELS 3 Zrotation Xrotation Yrotation
                        End Site
                        {
                          OFFSET 0.0145 -0.0179 0.0127
                        }
                      }
                    }
                  }
                  JOINT lMid1
                  {
                    OFFSET 5.6954 0.21 2.1184
                    CHANNELS 3 Zrotation Xrotation Yrotation
                    JOINT lMid2
                    {
                      OFFSET 3.9766 -1.54 2.3863
                      CHANNELS 3 Zrotation Xrotation Yrotation
                      JOINT lMid2_End
                      {
                        OFFSET 1.4042 -1.926 1.125
                        CHANNELS 3 Zrotation Xrotation Yrotation
                        End Site
                        {
                          OFFSET 0.014 -0.0193 0.0113
                        }
                      }
                    }
                  }
                }
                JOINT lCarpal2
                {
                  OFFSET 2.0956 0.66 -0.3894
                  CHANNELS 3 Zrotation Xrotation Yrotation
                  JOINT lRing1
                  {
                    OFFSET 5.0395 -0.09 2.4971
                    CHANNELS 3 Zrotation Xrotation Yrotation
                    JOINT lRing2
                    {
                      OFFSET 3.7921 -1.552 1.4806
                      CHANNELS 3 Zrotation Xrotation Yrotation
                      JOINT lRing2_End
                      {
                        OFFSET 1.4655 -1.808 0.9609
                        CHANNELS 3 Zrotation Xrotation Yrotation
                        End Site
                        {
                          OFFSET 0.0147 -0.0181 0.0096
                        }
                      }
                    }
                  }
                  JOINT lPinky1
                  {
                    OFFSET 4.9141 -1.269 0.3591
                    CHANNELS 3 Zrotation Xrotation Yrotation
                    JOINT lPinky2
                    {
                      OFFSET 3.1477 -1.685 0.8462
                      CHANNELS 3 Zrotation Xrotation Yrotation
                      JOINT lPinky2_End
                      {
                        OFFSET 0.8055 -1.585 0.7955
                        CHANNELS 3 Zrotation Xrotation Yrotation
                        End Site
                        {
                          OFFSET 0.0081 -0.0158 0.008
                        }
                      }
                    }
                  }
                }
              }
            }
          }
        }
        JOINT rCollar
        {
          OFFSET -1.7069 20.075 5.0056
          CHANNELS 3 Zrotation Xrotation Yrotation
          JOINT rShldr
          {
            OFFSET -13.6458 -0.047 -4.849
            CHANNELS 3 Zrotation Xrotation Yrotation
            JOINT rForeArm
            {
              OFFSET -28.3255 -0.9759 2.2888
              CHANNELS 3 Zrotation Xrotation Yrotation
              JOINT rHand
              {
                OFFSET -22.1583 -0.53 10.8316
                CHANNELS 3 Zrotation Xrotation Yrotation
                JOINT rThumb1
                {
                  OFFSET -0.786 0.112 2.5817
                  CHANNELS 3 Zrotation Xrotation Yrotation
                  JOINT rThumb2
                  {
                    OFFSET -0.3601 -0.878 4.2331
                    CHANNELS 3 Zrotation Xrotation Yrotation
                    JOINT rThumb2_End
                    {
                      OFFSET -1.8127 -1.216 2.2227
                      CHANNELS 3 Zrotation Xrotation Yrotation
                      End Site
                      {
                        OFFSET -0.0181 -0.0122 0.0222
                      }
                    }
                  }
                }
                JOINT rCarpal1
                {
                  OFFSET -0.9571 1.114 1.7695
                  CHANNELS 3 Zrotation Xrotation Yrotation
                  JOINT rIndex1
                  {
                    OFFSET -4.1246 0.487 4.1451
                    CHANNELS 3 Zrotation Xrotation Yrotation
                    JOINT rIndex2
                    {
                      OFFSET -3.4052 -1.454 2.7682
                      CHANNELS 3 Zrotation Xrotation Yrotation
                      JOINT rIndex2_End
                      {
                        OFFSET -1.4531 -1.795 1.2713
                        CHANNELS 3 Zrotation Xrotation Yrotation
                        End Site
                        {
                          OFFSET -0.0145 -0.018 0.0127
                        }
                      }
                    }
                  }
                  JOINT rMid1
                  {
                    OFFSET -5.6954 0.21 2.1184
                    CHANNELS 3 Zrotation Xrotation Yrotation
                    JOINT rMid2
                    {
                      OFFSET -3.9766 -1.54 2.3863
                      CHANNELS 3 Zrotation Xrotation Yrotation
                      JOINT rMid2_End
                      {
                        OFFSET -1.4042 -1.926 1.125
                        CHANNELS 3 Zrotation Xrotation Yrotation
                        End Site
                        {
                          OFFSET -0.014 -0.0193 0.0113
                        }
                      }
                    }
                  }
                }
                JOINT rCarpal2
                {
                  OFFSET -2.0956 0.66 -0.3894
                  CHANNELS 3 Zrotation Xrotation Yrotation
                  JOINT rRing1
                  {
                    OFFSET -5.0395 -0.09 2.4971
                    CHANNELS 3 Zrotation Xrotation Yrotation
                    JOINT rRing2
                    {
                      OFFSET -3.7921 -1.552 1.4806
                      CHANNELS 3 Zrotation Xrotation Yrotation
                      JOINT rRing2_End
                      {
                        OFFSET -1.4655 -1.808 0.9609
                        CHANNELS 3 Zrotation Xrotation Yrotation
                        End Site
                        {
                          OFFSET -0.0147 -0.0181 0.0096
                        }
                      }
                    }
                  }
                  JOINT rPinky1
                  {
                    OFFSET -4.9141 -1.269 0.3592
                    CHANNELS 3 Zrotation Xrotation Yrotation
                    JOINT rPinky2
                    {
                      OFFSET -3.1477 -1.685 0.8462
                      CHANNELS 3 Zrotation Xrotation Yrotation
                      JOINT rPinky2_End
                      {
                        OFFSET -0.8055 -1.585 0.7955
                        CHANNELS 3 Zrotation Xrotation Yrotation
                        End Site
                        {
                          OFFSET -0.0081 -0.0158 0.008
                        }
                      }
                    }
                  }
                }
              }
            }
          }
        }
      }
    }
  }
  JOINT lThigh
  {
    OFFSET 8.367 -8.2066 0.5982
    CHANNELS 3 Zrotation Xrotation Yrotation
    JOINT lShin
    {
      OFFSET 2.1923 -43.463 -0.4932
      CHANNELS 3 Zrotation Xrotation Yrotation
      JOINT lFoot
      {
        OFFSET 0.7333 -45.8593 -2.6451
        CHANNELS 3 Zrotation Xrotation Yrotation
        End Site
        {
          OFFSET 2.6618 -4.2699 12.3931
        }
      }
    }
  }
  JOINT rThigh
  {
    OFFSET -8.367 -8.2066 0.5982
    CHANNELS 3 Zrotation Xrotation Yrotation
    JOINT rShin
    {
      OFFSET -2.1923 -43.463 -0.4931
      CHANNELS 3 Zrotation Xrotation Yrotation
      JOINT rFoot
      {
        OFFSET -0.7333 -45.8593 -2.6451
        CHANNELS 3 Zrotation Xrotation Yrotation
        End Site
        {
          OFFSET -2.6618 -4.2699 12.3931
        }
      }
    }
  }
}
MOTION
Frames:	4
Frame Time:	0.0333333
42.3108 7.01895 -4.8692 -0 -25.0011 -0 -0.0187338 -1.15353 -0.129006 -0.0400781 -2.30695 -0.258469 -0.0400781 -2.30695 -0.258469 10.5901 19.1311 9.49069 1.34372e-006 11.5588 -2.67329e-006 -11.8752 7.21662 -2.71821 -64.3906 -11.7472 -36.2947 18.4326 29.5967 -5.41081 -49.7236 27.5332 10.3536 3.18055e-015 6.36111e-015 -1.59028e-015 -2.0206e-006 1.03425e-006 -2.68508e-006 2.0206e-006 -1.03425e-006 2.68508e-006 6.36111e-015 6.36111e-015 -1.59028e-015 1.27222e-014 1.90833e-014 7.95139e-015 -2.0206e-006 1.03425e-006 -2.68508e-006 2.0206e-006 -1.03425e-006 2.68508e-006 1.27222e-014 1.90833e-014 7.95139e-015 -2.0206e-006 1.03425e-006 -2.68508e-006 2.0206e-006 -1.03425e-006 2.68508e-006 6.36111e-015 6.36111e-015 -1.59028e-015 1.27222e-014 1.90833e-014 7.95139e-015 -2.0206e-006 1.03425e-006 -2.68508e-006 2.0206e-006 -1.03425e-006 2.68508e-006 1.27222e-014 1.90833e-014 7.95139e-015 -2.0206e-006 1.03425e-006 -2.68508e-006 2.0206e-006 -1.03425e-006 2.68508e-006 12.0203 7.08233 3.06354 64.163 -11.8752 36.7017 -20.4024 29.3106 5.59239 49.8294 28.1338 -10.2021 9.06507e-007 1.1764e-006 -8.16989e-007 6.36111e-015 -3.18055e-015 -6.36111e-015 9.54166e-015 -3.18055e-015 -6.36111e-015 -3.18055e-015 3.18055e-015 6.36111e-015 9.06507e-007 1.1764e-006 -8.16989e-007 9.54166e-015 -3.18055e-015 -6.36111e-015 9.54166e-015 -3.18055e-015 -6.36111e-015 9.06507e-007 1.1764e-006 -8.16989e-007 9.54166e-015 -3.18055e-015 -6.36111e-015 9.54166e-015 -3.18055e-015 -6.36111e-015 -3.18055e-015 3.18055e-015 6.36111e-015 9.06507e-007 1.1764e-006 -8.16989e-007 9.54166e-015 -3.18055e-015 -6.36111e-015 9.54166e-015 -3.18055e-015 -6.36111e-015 9.06507e-007 1.1764e-006 -8.16989e-007 9.54166e-015 -3.18055e-015 -6.36111e-015 9.54166e-015 -3.18055e-015 -6.36111e-015 57.726 -50.476 126.613 -1.35258 46.5616 2.22723 4.75896 21.8784 7.04781 -57.7378 -50.4653 -126.645 1.31771 46.5528 -2.22369 -4.76388 21.8714 -7.03941 
42.3108 7.01895 -4.79365 -0 -25.0011 -0 -0.0180298 -1.31286 -0.129168 -0.0390365 -2.62567 -0.258852 -0.0390365 -2.62567 -0.258852 10.5138 17.907 9.73131 -1.21619e-007 10.3364 9.42658e-007 -12.0237 7.81568 -2.20914 -64.5348 -11.5667 -36.2381 18.6167 29.4918 -5.7264 -49.9377 27.6776 10.7416 -3.18055e-015 6.36111e-015 3.18055e-015 -6.36111e-015 3.18055e-015 1.59028e-015 -1.76556e-031 -3.18055e-015 -3.18055e-015 -3.53113e-031 6.36111e-015 3.18055e-015 -9.54166e-015 3.18055e-015 1.59028e-015 0 3.18055e-015 -0 3.18055e-015 -6.36111e-015 3.18055e-015 -9.54166e-015 3.18055e-015 1.59028e-015 0 3.18055e-015 -0 3.18055e-015 -6.36111e-015 3.18055e-015 -3.53113e-031 6.36111e-015 3.18055e-015 -9.54166e-015 3.18055e-015 1.59028e-015 0 3.18055e-015 -0 3.18055e-015 -6.36111e-015 3.18055e-015 -9.54166e-015 3.18055e-015 1.59028e-015 0 3.18055e-015 -0 3.18055e-015 -6.36111e-015 3.18055e-015 12.1583 7.66902 2.54439 64.3092 -11.6906 36.6451 -20.5884 29.1942 5.90875 50.0553 28.2991 -10.6032 -1.27222e-014 0 -3.18055e-015 -1.44605e-006 2.98955e-006 -1.22945e-006 9.06611e-007 1.17633e-006 -8.17004e-007 -3.18055e-015 3.18055e-015 -3.18055e-015 9.54166e-015 0 3.18055e-015 -1.44605e-006 2.98955e-006 -1.22945e-006 9.06611e-007 1.17633e-006 -8.17004e-007 9.54166e-015 0 3.18055e-015 -1.44605e-006 2.98955e-006 -1.22945e-006 9.06611e-007 1.17633e-006 -8.17004e-007 -3.18055e-015 3.18055e-015 -3.18055e-015 9.54166e-015 0 3.18055e-015 -1.44605e-006 2.98955e-006 -1.22945e-006 9.06611e-007 1.17633e-006 -8.17004e-007 9.54166e-015 0 3.18055e-015 -1.44605e-006 2.98955e-006 -1.22945e-006 9.06611e-007 1.17633e-006 -8.17004e-007 57.7259 -50.476 126.613 -1.35259 46.5615 2.22722 4.75896 21.8784 7.04779 -57.7378 -50.4653 -126.645 1.31772 46.5527 -2.22371 -4.7639 21.8714 -7.03941 
42.3108 7.01895 -4.71809 -0 -25.0011 -0 -0.0173241 -1.47204 -0.129332 -0.0379921 -2.944 -0.259238 -0.0379921 -2.94399 -0.259238 10.4428 16.6768 9.96958 -1.37681e-006 9.10993 -1.66782e-006 -12.1777 8.41312 -1.69791 -64.679 -11.3863 -36.1811 18.7999 29.386 -6.04119 -50.1531 27.8207 11.1307 3.7757e-007 1.27561e-006 1.82762e-006 -3.18055e-015 -3.18055e-015 -0 5.44117e-007 -2.42707e-006 -2.65755e-006 8.82781e-032 3.18055e-015 -1.59028e-015 3.7757e-007 1.27561e-006 1.82762e-006 6.36111e-015 3.18055e-015 3.18055e-015 5.44117e-007 -2.42707e-006 -2.65755e-006 3.7757e-007 1.27561e-006 1.82762e-006 6.36111e-015 3.18055e-015 3.18055e-015 5.44117e-007 -2.42707e-006 -2.65755e-006 8.82781e-032 3.18055e-015 -1.59028e-015 3.7757e-007 1.27561e-006 1.82762e-006 6.36111e-015 3.18055e-015 3.18055e-015 5.44117e-007 -2.42707e-006 -2.65755e-006 3.7757e-007 1.27561e-006 1.82762e-006 6.36111e-015 3.18055e-015 3.18055e-015 5.44117e-007 -2.42707e-006 -2.65755e-006 12.3019 8.25414 2.02321 64.4556 -11.506 36.588 -20.7735 29.077 6.22435 50.2828 28.463 -11.0056 -4.53377e-007 -5.88109e-007 4.08523e-007 -4.53377e-007 -5.88109e-007 4.08523e-007 3.18055e-015 -6.36111e-015 3.18055e-015 -3.18055e-015 0 -6.36111e-015 -4.53377e-007 -5.88109e-007 4.08523e-007 -4.53377e-007 -5.88109e-007 4.08523e-007 0 0 -0 -4.53377e-007 -5.88109e-007 4.08523e-007 -4.53377e-007 -5.88109e-007 4.08523e-007 0 0 -0 -3.18055e-015 0 -6.36111e-015 -4.53377e-007 -5.88109e-007 4.08523e-007 -4.53377e-007 -5.88109e-007 4.08523e-007 0 0 -0 -4.53377e-007 -5.88109e-007 4.08523e-007 -4.53377e-007 -5.88109e-007 4.08523e-007 0 0 -0 57.726 -50.476 126.613 -1.3526 46.5616 2.22724 4.75895 21.8783 7.04783 -57.7378 -50.4653 -126.645 1.31771 46.5528 -2.22369 -4.76391 21.8714 -7.03939 
42.3108 7.01895 -4.64253 -0 -25.0011 -0 -0.0166221 -1.63101 -0.129475 -0.0369555 -3.26197 -0.259581 -0.0369555 -3.26198 -0.259581 10.3775 15.4431 10.2055 2.45025e-006 7.87961 8.06927e-007 -12.3373 9.00915 -1.18435 -64.8233 -11.2061 -36.1236 18.9822 29.2794 -6.35531 -50.3699 27.9625 11.521 8.82781e-031 -6.36111e-015 7.95139e-015 -9.21864e-007 1.15129e-006 8.29996e-007 -9.21864e-007 1.15129e-006 8.29996e-007 8.82781e-031 -6.36111e-015 7.95139e-015 1.27222e-014 0 1.27222e-014 -9.21864e-007 1.15129e-006 8.29996e-007 -9.21864e-007 1.15129e-006 8.29996e-007 1.27222e-014 0 1.27222e-014 -9.21864e-007 1.15129e-006 8.29996e-007 -9.21864e-007 1.15129e-006 8.29996e-007 8.82781e-031 -6.36111e-015 7.95139e-015 1.27222e-014 0 1.27222e-014 -9.21864e-007 1.15129e-006 8.29996e-007 -9.21864e-007 1.15129e-006 8.29996e-007 1.27222e-014 0 1.27222e-014 -9.21864e-007 1.15129e-006 8.29996e-007 -9.21864e-007 1.15129e-006 8.29996e-007 12.4511 8.83795 1.49988 64.602 -11.3216 36.5305 -20.9576 28.9589 6.53909 50.5119 28.6255 -11.4094 3.18055e-015 3.18055e-015 -0 9.06937e-007 1.17606e-006 -8.17115e-007 6.36111e-015 3.18055e-015 -0 3.18055e-015 3.18055e-015 -0 1.27222e-014 3.18055e-015 -6.36111e-015 9.06937e-007 1.17606e-006 -8.17115e-007 9.54166e-015 0 -0 1.27222e-014 3.18055e-015 -6.36111e-015 9.06937e-007 1.17606e-006 -8.17115e-007 9.54166e-015 0 -0 3.18055e-015 3.18055e-015 -0 1.27222e-014 3.18055e-015 -6.36111e-015 9.06937e-007 1.17606e-006 -8.17115e-007 9.54166e-015 0 -0 1.27222e-014 3.18055e-015 -6.36111e-015 9.06937e-007 1.17606e-006 -8.17115e-007 9.54166e-015 0 -0 57.726 -50.476 126.613 -1.35257 46.5616 2.2272 4.75895 21.8783 7.04781 -57.7377 -50.4653 -126.645 1.31771 46.5527 -2.22368 -4.76391 21.8715 -7.0394 
